# .PCD v0.7 - Point Cloud Data file format
VERSION 0.7
FIELDS x y z intensity rgb
SIZE 4 4 4 4 4
TYPE F F F F U
COUNT 1 1 1 1 1
WIDTH 1000
HEIGHT 1
VIEWPOINT 0 0 0 1 0 0 0
POINTS 1000
DATA ascii
-5.000 -5.000 0.000 50 9132604
-4.500 -5.000 0.000 51 9132604
-4.000 -5.000 0.000 52 9132604
-3.500 -5.000 0.000 53 9132604
-3.000 -5.000 0.000 54 9132604
-2.500 -5.000 0.000 55 9132604
-2.000 -5.000 0.000 56 9132604
-1.500 -5.000 0.000 57 9132604
-1.000 -5.000 0.000 58 9132604
-0.500 -5.000 0.000 59 9132604
0.000 -5.000 0.000 60 9132604
0.500 -5.000 0.000 61 9132604
1.000 -5.000 0.000 62 9132604
1.500 -5.000 0.000 63 9132604
2.000 -5.000 0.000 64 9132604
2.500 -5.000 0.000 65 9132604
3.000 -5.000 0.000 66 9132604
3.500 -5.000 0.000 67 9132604
4.000 -5.000 0.000 68 9132604
4.500 -5.000 0.000 69 9132604
-5.000 -4.500 0.000 70 9132604
-4.500 -4.500 0.000 71 9132604
-4.000 -4.500 0.000 72 9132604
-3.500 -4.500 0.000 73 9132604
-3.000 -4.500 0.000 74 9132604
-2.500 -4.500 0.000 75 9132604
-2.000 -4.500 0.000 76 9132604
-1.500 -4.500 0.000 77 9132604
-1.000 -4.500 0.000 78 9132604
-0.500 -4.500 0.000 79 9132604
0.000 -4.500 0.000 80 9132604
0.500 -4.500 0.000 81 9132604
1.000 -4.500 0.000 82 9132604
1.500 -4.500 0.000 83 9132604
2.000 -4.500 0.000 84 9132604
2.500 -4.500 0.000 85 9132604
3.000 -4.500 0.000 86 9132604
3.500 -4.500 0.000 87 9132604
4.000 -4.500 0.000 88 9132604
4.500 -4.500 0.000 89 9132604
-5.000 -4.000 0.000 90 9132604
-4.500 -4.000 0.000 91 9132604
-4.000 -4.000 0.000 92 9132604
-3.500 -4.000 0.000 93 9132604
-3.000 -4.000 0.000 94 9132604
-2.500 -4.000 0.000 95 9132604
-2.000 -4.000 0.000 96 9132604
-1.500 -4.000 0.000 97 9132604
-1.000 -4.000 0.000 98 9132604
-0.500 -4.000 0.000 99 9132604
0.000 -4.000 0.000 50 9132604
0.500 -4.000 0.000 51 9132604
1.000 -4.000 0.000 52 9132604
1.500 -4.000 0.000 53 9132604
2.000 -4.000 0.000 54 9132604
2.500 -4.000 0.000 55 9132604
3.000 -4.000 0.000 56 9132604
3.500 -4.000 0.000 57 9132604
4.000 -4.000 0.000 58 9132604
4.500 -4.000 0.000 59 9132604
-5.000 -3.500 0.000 60 9132604
-4.500 -3.500 0.000 61 9132604
-4.000 -3.500 0.000 62 9132604
-3.500 -3.500 0.000 63 9132604
-3.000 -3.500 0.000 64 9132604
-2.500 -3.500 0.000 65 9132604
-2.000 -3.500 0.000 66 9132604
-1.500 -3.500 0.000 67 9132604
-1.000 -3.500 0.000 68 9132604
-0.500 -3.500 0.000 69 9132604
0.000 -3.500 0.000 70 9132604
0.500 -3.500 0.000 71 9132604
1.000 -3.500 0.000 72 9132604
1.500 -3.500 0.000 73 9132604
2.000 -3.500 0.000 74 9132604
2.500 -3.500 0.000 75 9132604
3.000 -3.500 0.000 76 9132604
3.500 -3.500 0.000 77 9132604
4.000 -3.500 0.000 78 9132604
4.500 -3.500 0.000 79 9132604
-5.000 -3.000 0.000 80 9132604
-4.500 -3.000 0.000 81 9132604
-4.000 -3.000 0.000 82 9132604
-3.500 -3.000 0.000 83 9132604
-3.000 -3.000 0.000 84 9132604
-2.500 -3.000 0.000 85 9132604
-2.000 -3.000 0.000 86 9132604
-1.500 -3.000 0.000 87 9132604
-1.000 -3.000 0.000 88 9132604
-0.500 -3.000 0.000 89 9132604
0.000 -3.000 0.000 90 9132604
0.500 -3.000 0.000 91 9132604
1.000 -3.000 0.000 92 9132604
1.500 -3.000 0.000 93 9132604
2.000 -3.000 0.000 94 9132604
2.500 -3.000 0.000 95 9132604
3.000 -3.000 0.000 96 9132604
3.500 -3.000 0.000 97 9132604
4.000 -3.000 0.000 98 9132604
4.500 -3.000 0.000 99 9132604
-5.000 -2.500 0.000 50 9132604
-4.500 -2.500 0.000 51 9132604
-4.000 -2.500 0.000 52 9132604
-3.500 -2.500 0.000 53 9132604
-3.000 -2.500 0.000 54 9132604
-2.500 -2.500 0.000 55 9132604
-2.000 -2.500 0.000 56 9132604
-1.500 -2.500 0.000 57 9132604
-1.000 -2.500 0.000 58 9132604
-0.500 -2.500 0.000 59 9132604
0.000 -2.500 0.000 60 9132604
0.500 -2.500 0.000 61 9132604
1.000 -2.500 0.000 62 9132604
1.500 -2.500 0.000 63 9132604
2.000 -2.500 0.000 64 9132604
2.500 -2.500 0.000 65 9132604
3.000 -2.500 0.000 66 9132604
3.500 -2.500 0.000 67 9132604
4.000 -2.500 0.000 68 9132604
4.500 -2.500 0.000 69 9132604
-5.000 -2.000 0.000 70 9132604
-4.500 -2.000 0.000 71 9132604
-4.000 -2.000 0.000 72 9132604
-3.500 -2.000 0.000 73 9132604
-3.000 -2.000 0.000 74 9132604
-2.500 -2.000 0.000 75 9132604
-2.000 -2.000 0.000 76 9132604
-1.500 -2.000 0.000 77 9132604
-1.000 -2.000 0.000 78 9132604
-0.500 -2.000 0.000 79 9132604
0.000 -2.000 0.000 80 9132604
0.500 -2.000 0.000 81 9132604
1.000 -2.000 0.000 82 9132604
1.500 -2.000 0.000 83 9132604
2.000 -2.000 0.000 84 9132604
2.500 -2.000 0.000 85 9132604
3.000 -2.000 0.000 86 9132604
3.500 -2.000 0.000 87 9132604
4.000 -2.000 0.000 88 9132604
4.500 -2.000 0.000 89 9132604
-5.000 -1.500 0.000 90 9132604
-4.500 -1.500 0.000 91 9132604
-4.000 -1.500 0.000 92 9132604
-3.500 -1.500 0.000 93 9132604
-3.000 -1.500 0.000 94 9132604
-2.500 -1.500 0.000 95 9132604
-2.000 -1.500 0.000 96 9132604
-1.500 -1.500 0.000 97 9132604
-1.000 -1.500 0.000 98 9132604
-0.500 -1.500 0.000 99 9132604
0.000 -1.500 0.000 50 9132604
0.500 -1.500 0.000 51 9132604
1.000 -1.500 0.000 52 9132604
1.500 -1.500 0.000 53 9132604
2.000 -1.500 0.000 54 9132604
2.500 -1.500 0.000 55 9132604
3.000 -1.500 0.000 56 9132604
3.500 -1.500 0.000 57 9132604
4.000 -1.500 0.000 58 9132604
4.500 -1.500 0.000 59 9132604
-5.000 -1.000 0.000 60 9132604
-4.500 -1.000 0.000 61 9132604
-4.000 -1.000 0.000 62 9132604
-3.500 -1.000 0.000 63 9132604
-3.000 -1.000 0.000 64 9132604
-2.500 -1.000 0.000 65 9132604
-2.000 -1.000 0.000 66 9132604
-1.500 -1.000 0.000 67 9132604
-1.000 -1.000 0.000 68 9132604
-0.500 -1.000 0.000 69 9132604
0.000 -1.000 0.000 70 9132604
0.500 -1.000 0.000 71 9132604
1.000 -1.000 0.000 72 9132604
1.500 -1.000 0.000 73 9132604
2.000 -1.000 0.000 74 9132604
2.500 -1.000 0.000 75 9132604
3.000 -1.000 0.000 76 9132604
3.500 -1.000 0.000 77 9132604
4.000 -1.000 0.000 78 9132604
4.500 -1.000 0.000 79 9132604
-5.000 -0.500 0.000 80 9132604
-4.500 -0.500 0.000 81 9132604
-4.000 -0.500 0.000 82 9132604
-3.500 -0.500 0.000 83 9132604
-3.000 -0.500 0.000 84 9132604
-2.500 -0.500 0.000 85 9132604
-2.000 -0.500 0.000 86 9132604
-1.500 -0.500 0.000 87 9132604
-1.000 -0.500 0.000 88 9132604
-0.500 -0.500 0.000 89 9132604
0.000 -0.500 0.000 90 9132604
0.500 -0.500 0.000 91 9132604
1.000 -0.500 0.000 92 9132604
1.500 -0.500 0.000 93 9132604
2.000 -0.500 0.000 94 9132604
2.500 -0.500 0.000 95 9132604
3.000 -0.500 0.000 96 9132604
3.500 -0.500 0.000 97 9132604
4.000 -0.500 0.000 98 9132604
4.500 -0.500 0.000 99 9132604
-5.000 0.000 0.000 50 9132604
-4.500 0.000 0.000 51 9132604
-4.000 0.000 0.000 52 9132604
-3.500 0.000 0.000 53 9132604
-3.000 0.000 0.000 54 9132604
-2.500 0.000 0.000 55 9132604
-2.000 0.000 0.000 56 9132604
-1.500 0.000 0.000 57 9132604
-1.000 0.000 0.000 58 9132604
-0.500 0.000 0.000 59 9132604
0.000 0.000 0.000 60 9132604
0.500 0.000 0.000 61 9132604
1.000 0.000 0.000 62 9132604
1.500 0.000 0.000 63 9132604
2.000 0.000 0.000 64 9132604
2.500 0.000 0.000 65 9132604
3.000 0.000 0.000 66 9132604
3.500 0.000 0.000 67 9132604
4.000 0.000 0.000 68 9132604
4.500 0.000 0.000 69 9132604
-5.000 0.500 0.000 70 9132604
-4.500 0.500 0.000 71 9132604
-4.000 0.500 0.000 72 9132604
-3.500 0.500 0.000 73 9132604
-3.000 0.500 0.000 74 9132604
-2.500 0.500 0.000 75 9132604
-2.000 0.500 0.000 76 9132604
-1.500 0.500 0.000 77 9132604
-1.000 0.500 0.000 78 9132604
-0.500 0.500 0.000 79 9132604
0.000 0.500 0.000 80 9132604
0.500 0.500 0.000 81 9132604
1.000 0.500 0.000 82 9132604
1.500 0.500 0.000 83 9132604
2.000 0.500 0.000 84 9132604
2.500 0.500 0.000 85 9132604
3.000 0.500 0.000 86 9132604
3.500 0.500 0.000 87 9132604
4.000 0.500 0.000 88 9132604
4.500 0.500 0.000 89 9132604
-5.000 1.000 0.000 90 9132604
-4.500 1.000 0.000 91 9132604
-4.000 1.000 0.000 92 9132604
-3.500 1.000 0.000 93 9132604
-3.000 1.000 0.000 94 9132604
-2.500 1.000 0.000 95 9132604
-2.000 1.000 0.000 96 9132604
-1.500 1.000 0.000 97 9132604
-1.000 1.000 0.000 98 9132604
-0.500 1.000 0.000 99 9132604
0.000 1.000 0.000 50 9132604
0.500 1.000 0.000 51 9132604
1.000 1.000 0.000 52 9132604
1.500 1.000 0.000 53 9132604
2.000 1.000 0.000 54 9132604
2.500 1.000 0.000 55 9132604
3.000 1.000 0.000 56 9132604
3.500 1.000 0.000 57 9132604
4.000 1.000 0.000 58 9132604
4.500 1.000 0.000 59 9132604
-5.000 1.500 0.000 60 9132604
-4.500 1.500 0.000 61 9132604
-4.000 1.500 0.000 62 9132604
-3.500 1.500 0.000 63 9132604
-3.000 1.500 0.000 64 9132604
-2.500 1.500 0.000 65 9132604
-2.000 1.500 0.000 66 9132604
-1.500 1.500 0.000 67 9132604
-1.000 1.500 0.000 68 9132604
-0.500 1.500 0.000 69 9132604
0.000 1.500 0.000 70 9132604
0.500 1.500 0.000 71 9132604
1.000 1.500 0.000 72 9132604
1.500 1.500 0.000 73 9132604
2.000 1.500 0.000 74 9132604
2.500 1.500 0.000 75 9132604
3.000 1.500 0.000 76 9132604
3.500 1.500 0.000 77 9132604
4.000 1.500 0.000 78 9132604
4.500 1.500 0.000 79 9132604
-5.000 2.000 0.000 80 9132604
-4.500 2.000 0.000 81 9132604
-4.000 2.000 0.000 82 9132604
-3.500 2.000 0.000 83 9132604
-3.000 2.000 0.000 84 9132604
-2.500 2.000 0.000 85 9132604
-2.000 2.000 0.000 86 9132604
-1.500 2.000 0.000 87 9132604
-1.000 2.000 0.000 88 9132604
-0.500 2.000 0.000 89 9132604
0.000 2.000 0.000 90 9132604
0.500 2.000 0.000 91 9132604
1.000 2.000 0.000 92 9132604
1.500 2.000 0.000 93 9132604
2.000 2.000 0.000 94 9132604
2.500 2.000 0.000 95 9132604
3.000 2.000 0.000 96 9132604
3.500 2.000 0.000 97 9132604
4.000 2.000 0.000 98 9132604
4.500 2.000 0.000 99 9132604
-5.000 2.500 0.000 50 9132604
-4.500 2.500 0.000 51 9132604
-4.000 2.500 0.000 52 9132604
-3.500 2.500 0.000 53 9132604
-3.000 2.500 0.000 54 9132604
-2.500 2.500 0.000 55 9132604
-2.000 2.500 0.000 56 9132604
-1.500 2.500 0.000 57 9132604
-1.000 2.500 0.000 58 9132604
-0.500 2.500 0.000 59 9132604
0.000 2.500 0.000 60 9132604
0.500 2.500 0.000 61 9132604
1.000 2.500 0.000 62 9132604
1.500 2.500 0.000 63 9132604
2.000 2.500 0.000 64 9132604
2.500 2.500 0.000 65 9132604
3.000 2.500 0.000 66 9132604
3.500 2.500 0.000 67 9132604
4.000 2.500 0.000 68 9132604
4.500 2.500 0.000 69 9132604
-5.000 3.000 0.000 70 9132604
-4.500 3.000 0.000 71 9132604
-4.000 3.000 0.000 72 9132604
-3.500 3.000 0.000 73 9132604
-3.000 3.000 0.000 74 9132604
-2.500 3.000 0.000 75 9132604
-2.000 3.000 0.000 76 9132604
-1.500 3.000 0.000 77 9132604
-1.000 3.000 0.000 78 9132604
-0.500 3.000 0.000 79 9132604
0.000 3.000 0.000 80 9132604
0.500 3.000 0.000 81 9132604
1.000 3.000 0.000 82 9132604
1.500 3.000 0.000 83 9132604
2.000 3.000 0.000 84 9132604
2.500 3.000 0.000 85 9132604
3.000 3.000 0.000 86 9132604
3.500 3.000 0.000 87 9132604
4.000 3.000 0.000 88 9132604
4.500 3.000 0.000 89 9132604
-5.000 3.500 0.000 90 9132604
-4.500 3.500 0.000 91 9132604
-4.000 3.500 0.000 92 9132604
-3.500 3.500 0.000 93 9132604
-3.000 3.500 0.000 94 9132604
-2.500 3.500 0.000 95 9132604
-2.000 3.500 0.000 96 9132604
-1.500 3.500 0.000 97 9132604
-1.000 3.500 0.000 98 9132604
-0.500 3.500 0.000 99 9132604
0.000 3.500 0.000 50 9132604
0.500 3.500 0.000 51 9132604
1.000 3.500 0.000 52 9132604
1.500 3.500 0.000 53 9132604
2.000 3.500 0.000 54 9132604
2.500 3.500 0.000 55 9132604
3.000 3.500 0.000 56 9132604
3.500 3.500 0.000 57 9132604
4.000 3.500 0.000 58 9132604
4.500 3.500 0.000 59 9132604
-5.000 4.000 0.000 60 9132604
-4.500 4.000 0.000 61 9132604
-4.000 4.000 0.000 62 9132604
-3.500 4.000 0.000 63 9132604
-3.000 4.000 0.000 64 9132604
-2.500 4.000 0.000 65 9132604
-2.000 4.000 0.000 66 9132604
-1.500 4.000 0.000 67 9132604
-1.000 4.000 0.000 68 9132604
-0.500 4.000 0.000 69 9132604
0.000 4.000 0.000 70 9132604
0.500 4.000 0.000 71 9132604
1.000 4.000 0.000 72 9132604
1.500 4.000 0.000 73 9132604
2.000 4.000 0.000 74 9132604
2.500 4.000 0.000 75 9132604
3.000 4.000 0.000 76 9132604
3.500 4.000 0.000 77 9132604
4.000 4.000 0.000 78 9132604
4.500 4.000 0.000 79 9132604
-5.000 4.500 0.000 80 9132604
-4.500 4.500 0.000 81 9132604
-4.000 4.500 0.000 82 9132604
-3.500 4.500 0.000 83 9132604
-3.000 4.500 0.000 84 9132604
-2.500 4.500 0.000 85 9132604
-2.000 4.500 0.000 86 9132604
-1.500 4.500 0.000 87 9132604
-1.000 4.500 0.000 88 9132604
-0.500 4.500 0.000 89 9132604
0.000 4.500 0.000 90 9132604
0.500 4.500 0.000 91 9132604
1.000 4.500 0.000 92 9132604
1.500 4.500 0.000 93 9132604
2.000 4.500 0.000 94 9132604
2.500 4.500 0.000 95 9132604
3.000 4.500 0.000 96 9132604
3.500 4.500 0.000 97 9132604
4.000 4.500 0.000 98 9132604
4.500 4.500 0.000 99 9132604
2.000 0.000 1.000 150 13120050
1.999 0.047 1.002 150 13120050
1.996 0.094 1.005 150 13120050
1.991 0.141 1.008 150 13120050
1.984 0.188 1.010 150 13120050
1.975 0.235 1.012 150 13120050
1.965 0.281 1.015 150 13120050
1.952 0.327 1.018 150 13120050
1.937 0.373 1.020 150 13120050
1.921 0.418 1.022 150 13120050
1.902 0.464 1.025 150 13120050
1.882 0.508 1.028 150 13120050
1.860 0.552 1.030 150 13120050
1.836 0.596 1.032 150 13120050
1.810 0.639 1.035 150 13120050
1.782 0.681 1.038 150 13120050
1.753 0.723 1.040 150 13120050
1.721 0.764 1.042 150 13120050
1.689 0.804 1.045 150 13120050
1.654 0.843 1.048 150 13120050
1.618 0.882 1.050 150 13120050
1.580 0.919 1.052 150 13120050
1.541 0.956 1.055 150 13120050
1.500 0.992 1.058 150 13120050
1.458 1.027 1.060 150 13120050
1.414 1.061 1.062 150 13120050
1.369 1.093 1.065 150 13120050
1.323 1.125 1.067 150 13120050
1.275 1.156 1.070 150 13120050
1.226 1.185 1.073 150 13120050
1.176 1.214 1.075 150 13120050
1.124 1.241 1.077 150 13120050
1.072 1.266 1.080 150 13120050
1.018 1.291 1.083 150 13120050
0.964 1.314 1.085 150 13120050
0.908 1.337 1.087 150 13120050
0.852 1.357 1.090 150 13120050
0.794 1.377 1.093 150 13120050
0.736 1.395 1.095 150 13120050
0.677 1.411 1.097 150 13120050
0.618 1.427 1.100 150 13120050
0.558 1.440 1.103 150 13120050
0.497 1.453 1.105 150 13120050
0.436 1.464 1.107 150 13120050
0.375 1.473 1.110 150 13120050
0.313 1.482 1.113 150 13120050
0.251 1.488 1.115 150 13120050
0.188 1.493 1.117 150 13120050
0.126 1.497 1.120 150 13120050
0.063 1.499 1.123 150 13120050
0.000 1.500 1.125 150 13120050
-0.063 1.499 1.127 150 13120050
-0.126 1.497 1.130 150 13120050
-0.188 1.493 1.133 150 13120050
-0.251 1.488 1.135 150 13120050
-0.313 1.482 1.137 150 13120050
-0.375 1.473 1.140 150 13120050
-0.436 1.464 1.143 150 13120050
-0.497 1.453 1.145 150 13120050
-0.558 1.440 1.147 150 13120050
-0.618 1.427 1.150 150 13120050
-0.677 1.411 1.153 150 13120050
-0.736 1.395 1.155 150 13120050
-0.794 1.377 1.157 150 13120050
-0.852 1.357 1.160 150 13120050
-0.908 1.337 1.163 150 13120050
-0.964 1.314 1.165 150 13120050
-1.018 1.291 1.167 150 13120050
-1.072 1.266 1.170 150 13120050
-1.124 1.241 1.172 150 13120050
-1.176 1.214 1.175 150 13120050
-1.226 1.185 1.177 150 13120050
-1.275 1.156 1.180 150 13120050
-1.323 1.125 1.183 150 13120050
-1.369 1.093 1.185 150 13120050
-1.414 1.061 1.188 150 13120050
-1.458 1.027 1.190 150 13120050
-1.500 0.992 1.192 150 13120050
-1.541 0.956 1.195 150 13120050
-1.580 0.919 1.198 150 13120050
-1.618 0.882 1.200 150 13120050
-1.654 0.843 1.203 150 13120050
-1.689 0.804 1.205 150 13120050
-1.721 0.764 1.208 150 13120050
-1.753 0.723 1.210 150 13120050
-1.782 0.681 1.212 150 13120050
-1.810 0.639 1.215 150 13120050
-1.836 0.596 1.218 150 13120050
-1.860 0.552 1.220 150 13120050
-1.882 0.508 1.222 150 13120050
-1.902 0.464 1.225 150 13120050
-1.921 0.418 1.228 150 13120050
-1.937 0.373 1.230 150 13120050
-1.952 0.327 1.232 150 13120050
-1.965 0.281 1.235 150 13120050
-1.975 0.235 1.238 150 13120050
-1.984 0.188 1.240 150 13120050
-1.991 0.141 1.242 150 13120050
-1.996 0.094 1.245 150 13120050
-1.999 0.047 1.248 150 13120050
-2.000 0.000 1.250 150 13120050
-1.999 -0.047 1.252 150 13120050
-1.996 -0.094 1.255 150 13120050
-1.991 -0.141 1.258 150 13120050
-1.984 -0.188 1.260 150 13120050
-1.975 -0.235 1.262 150 13120050
-1.965 -0.281 1.265 150 13120050
-1.952 -0.327 1.268 150 13120050
-1.937 -0.373 1.270 150 13120050
-1.921 -0.418 1.272 150 13120050
-1.902 -0.464 1.275 150 13120050
-1.882 -0.508 1.278 150 13120050
-1.860 -0.552 1.280 150 13120050
-1.836 -0.596 1.282 150 13120050
-1.810 -0.639 1.285 150 13120050
-1.782 -0.681 1.288 150 13120050
-1.753 -0.723 1.290 150 13120050
-1.721 -0.764 1.292 150 13120050
-1.689 -0.804 1.295 150 13120050
-1.654 -0.843 1.297 150 13120050
-1.618 -0.882 1.300 150 13120050
-1.580 -0.919 1.302 150 13120050
-1.541 -0.956 1.305 150 13120050
-1.500 -0.992 1.308 150 13120050
-1.458 -1.027 1.310 150 13120050
-1.414 -1.061 1.312 150 13120050
-1.369 -1.093 1.315 150 13120050
-1.323 -1.125 1.317 150 13120050
-1.275 -1.156 1.320 150 13120050
-1.226 -1.185 1.323 150 13120050
-1.176 -1.214 1.325 150 13120050
-1.124 -1.241 1.328 150 13120050
-1.072 -1.266 1.330 150 13120050
-1.018 -1.291 1.333 150 13120050
-0.964 -1.314 1.335 150 13120050
-0.908 -1.337 1.337 150 13120050
-0.852 -1.357 1.340 150 13120050
-0.794 -1.377 1.343 150 13120050
-0.736 -1.395 1.345 150 13120050
-0.677 -1.411 1.347 150 13120050
-0.618 -1.427 1.350 150 13120050
-0.558 -1.440 1.353 150 13120050
-0.497 -1.453 1.355 150 13120050
-0.436 -1.464 1.357 150 13120050
-0.375 -1.473 1.360 150 13120050
-0.313 -1.482 1.363 150 13120050
-0.251 -1.488 1.365 150 13120050
-0.188 -1.493 1.367 150 13120050
-0.126 -1.497 1.370 150 13120050
-0.063 -1.499 1.373 150 13120050
-0.000 -1.500 1.375 150 13120050
0.063 -1.499 1.377 150 13120050
0.126 -1.497 1.380 150 13120050
0.188 -1.493 1.383 150 13120050
0.251 -1.488 1.385 150 13120050
0.313 -1.482 1.387 150 13120050
0.375 -1.473 1.390 150 13120050
0.436 -1.464 1.393 150 13120050
0.497 -1.453 1.395 150 13120050
0.558 -1.440 1.397 150 13120050
0.618 -1.427 1.400 150 13120050
0.677 -1.411 1.403 150 13120050
0.736 -1.395 1.405 150 13120050
0.794 -1.377 1.407 150 13120050
0.852 -1.357 1.410 150 13120050
0.908 -1.337 1.413 150 13120050
0.964 -1.314 1.415 150 13120050
1.018 -1.291 1.417 150 13120050
1.072 -1.266 1.420 150 13120050
1.124 -1.241 1.422 150 13120050
1.176 -1.214 1.425 150 13120050
1.226 -1.185 1.427 150 13120050
1.275 -1.156 1.430 150 13120050
1.323 -1.125 1.433 150 13120050
1.369 -1.093 1.435 150 13120050
1.414 -1.061 1.438 150 13120050
1.458 -1.027 1.440 150 13120050
1.500 -0.992 1.442 150 13120050
1.541 -0.956 1.445 150 13120050
1.580 -0.919 1.448 150 13120050
1.618 -0.882 1.450 150 13120050
1.654 -0.843 1.453 150 13120050
1.689 -0.804 1.455 150 13120050
1.721 -0.764 1.458 150 13120050
1.753 -0.723 1.460 150 13120050
1.782 -0.681 1.462 150 13120050
1.810 -0.639 1.465 150 13120050
1.836 -0.596 1.468 150 13120050
1.860 -0.552 1.470 150 13120050
1.882 -0.508 1.472 150 13120050
1.902 -0.464 1.475 150 13120050
1.921 -0.418 1.478 150 13120050
1.937 -0.373 1.480 150 13120050
1.952 -0.327 1.482 150 13120050
1.965 -0.281 1.485 150 13120050
1.975 -0.235 1.488 150 13120050
1.984 -0.188 1.490 150 13120050
1.991 -0.141 1.492 150 13120050
1.996 -0.094 1.495 150 13120050
1.999 -0.047 1.498 150 13120050
1.800 0.000 0.300 100 1973790
1.800 0.009 0.300 100 1973790
1.799 0.019 0.300 100 1973790
1.799 0.028 0.300 100 1973790
1.798 0.038 0.300 100 1973790
1.796 0.047 0.300 100 1973790
1.795 0.056 0.300 100 1973790
1.793 0.065 0.300 100 1973790
1.791 0.075 0.300 100 1973790
1.788 0.084 0.300 100 1973790
1.785 0.093 0.300 100 1973790
1.782 0.102 0.300 100 1973790
1.779 0.110 0.300 100 1973790
1.775 0.119 0.300 100 1973790
1.771 0.128 0.300 100 1973790
1.767 0.136 0.300 100 1973790
1.763 0.145 0.300 100 1973790
1.758 0.153 0.300 100 1973790
1.753 0.161 0.300 100 1973790
1.748 0.169 0.300 100 1973790
1.743 0.176 0.300 100 1973790
1.737 0.184 0.300 100 1973790
1.731 0.191 0.300 100 1973790
1.725 0.198 0.300 100 1973790
1.719 0.205 0.300 100 1973790
1.712 0.212 0.300 100 1973790
1.705 0.219 0.300 100 1973790
1.698 0.225 0.300 100 1973790
1.691 0.231 0.300 100 1973790
1.684 0.237 0.300 100 1973790
1.676 0.243 0.300 100 1973790
1.669 0.248 0.300 100 1973790
1.661 0.253 0.300 100 1973790
1.653 0.258 0.300 100 1973790
1.645 0.263 0.300 100 1973790
1.636 0.267 0.300 100 1973790
1.628 0.271 0.300 100 1973790
1.619 0.275 0.300 100 1973790
1.610 0.279 0.300 100 1973790
1.602 0.282 0.300 100 1973790
1.593 0.285 0.300 100 1973790
1.584 0.288 0.300 100 1973790
1.575 0.291 0.300 100 1973790
1.565 0.293 0.300 100 1973790
1.556 0.295 0.300 100 1973790
1.547 0.296 0.300 100 1973790
1.538 0.298 0.300 100 1973790
1.528 0.299 0.300 100 1973790
1.519 0.299 0.300 100 1973790
1.509 0.300 0.300 100 1973790
1.500 0.300 0.300 100 1973790
1.491 0.300 0.300 100 1973790
1.481 0.299 0.300 100 1973790
1.472 0.299 0.300 100 1973790
1.462 0.298 0.300 100 1973790
1.453 0.296 0.300 100 1973790
1.444 0.295 0.300 100 1973790
1.435 0.293 0.300 100 1973790
1.425 0.291 0.300 100 1973790
1.416 0.288 0.300 100 1973790
1.407 0.285 0.300 100 1973790
1.398 0.282 0.300 100 1973790
1.390 0.279 0.300 100 1973790
1.381 0.275 0.300 100 1973790
1.372 0.271 0.300 100 1973790
1.364 0.267 0.300 100 1973790
1.355 0.263 0.300 100 1973790
1.347 0.258 0.300 100 1973790
1.339 0.253 0.300 100 1973790
1.331 0.248 0.300 100 1973790
1.324 0.243 0.300 100 1973790
1.316 0.237 0.300 100 1973790
1.309 0.231 0.300 100 1973790
1.302 0.225 0.300 100 1973790
1.295 0.219 0.300 100 1973790
1.288 0.212 0.300 100 1973790
1.281 0.205 0.300 100 1973790
1.275 0.198 0.300 100 1973790
1.269 0.191 0.300 100 1973790
1.263 0.184 0.300 100 1973790
1.257 0.176 0.300 100 1973790
1.252 0.169 0.300 100 1973790
1.247 0.161 0.300 100 1973790
1.242 0.153 0.300 100 1973790
1.237 0.145 0.300 100 1973790
1.233 0.136 0.300 100 1973790
1.229 0.128 0.300 100 1973790
1.225 0.119 0.300 100 1973790
1.221 0.110 0.300 100 1973790
1.218 0.102 0.300 100 1973790
1.215 0.093 0.300 100 1973790
1.212 0.084 0.300 100 1973790
1.209 0.075 0.300 100 1973790
1.207 0.065 0.300 100 1973790
1.205 0.056 0.300 100 1973790
1.204 0.047 0.300 100 1973790
1.202 0.038 0.300 100 1973790
1.201 0.028 0.300 100 1973790
1.201 0.019 0.300 100 1973790
1.200 0.009 0.300 100 1973790
-1.800 0.000 0.300 100 1973790
-1.800 -0.009 0.300 100 1973790
-1.799 -0.019 0.300 100 1973790
-1.799 -0.028 0.300 100 1973790
-1.798 -0.038 0.300 100 1973790
-1.796 -0.047 0.300 100 1973790
-1.795 -0.056 0.300 100 1973790
-1.793 -0.065 0.300 100 1973790
-1.791 -0.075 0.300 100 1973790
-1.788 -0.084 0.300 100 1973790
-1.785 -0.093 0.300 100 1973790
-1.782 -0.102 0.300 100 1973790
-1.779 -0.110 0.300 100 1973790
-1.775 -0.119 0.300 100 1973790
-1.771 -0.128 0.300 100 1973790
-1.767 -0.136 0.300 100 1973790
-1.763 -0.145 0.300 100 1973790
-1.758 -0.153 0.300 100 1973790
-1.753 -0.161 0.300 100 1973790
-1.748 -0.169 0.300 100 1973790
-1.743 -0.176 0.300 100 1973790
-1.737 -0.184 0.300 100 1973790
-1.731 -0.191 0.300 100 1973790
-1.725 -0.198 0.300 100 1973790
-1.719 -0.205 0.300 100 1973790
-1.712 -0.212 0.300 100 1973790
-1.705 -0.219 0.300 100 1973790
-1.698 -0.225 0.300 100 1973790
-1.691 -0.231 0.300 100 1973790
-1.684 -0.237 0.300 100 1973790
-1.676 -0.243 0.300 100 1973790
-1.669 -0.248 0.300 100 1973790
-1.661 -0.253 0.300 100 1973790
-1.653 -0.258 0.300 100 1973790
-1.645 -0.263 0.300 100 1973790
-1.636 -0.267 0.300 100 1973790
-1.628 -0.271 0.300 100 1973790
-1.619 -0.275 0.300 100 1973790
-1.610 -0.279 0.300 100 1973790
-1.602 -0.282 0.300 100 1973790
-1.593 -0.285 0.300 100 1973790
-1.584 -0.288 0.300 100 1973790
-1.575 -0.291 0.300 100 1973790
-1.565 -0.293 0.300 100 1973790
-1.556 -0.295 0.300 100 1973790
-1.547 -0.296 0.300 100 1973790
-1.538 -0.298 0.300 100 1973790
-1.528 -0.299 0.300 100 1973790
-1.519 -0.299 0.300 100 1973790
-1.509 -0.300 0.300 100 1973790
-1.500 -0.300 0.300 100 1973790
-1.491 -0.300 0.300 100 1973790
-1.481 -0.299 0.300 100 1973790
-1.472 -0.299 0.300 100 1973790
-1.462 -0.298 0.300 100 1973790
-1.453 -0.296 0.300 100 1973790
-1.444 -0.295 0.300 100 1973790
-1.435 -0.293 0.300 100 1973790
-1.425 -0.291 0.300 100 1973790
-1.416 -0.288 0.300 100 1973790
-1.407 -0.285 0.300 100 1973790
-1.398 -0.282 0.300 100 1973790
-1.390 -0.279 0.300 100 1973790
-1.381 -0.275 0.300 100 1973790
-1.372 -0.271 0.300 100 1973790
-1.364 -0.267 0.300 100 1973790
-1.355 -0.263 0.300 100 1973790
-1.347 -0.258 0.300 100 1973790
-1.339 -0.253 0.300 100 1973790
-1.331 -0.248 0.300 100 1973790
-1.324 -0.243 0.300 100 1973790
-1.316 -0.237 0.300 100 1973790
-1.309 -0.231 0.300 100 1973790
-1.302 -0.225 0.300 100 1973790
-1.295 -0.219 0.300 100 1973790
-1.288 -0.212 0.300 100 1973790
-1.281 -0.205 0.300 100 1973790
-1.275 -0.198 0.300 100 1973790
-1.269 -0.191 0.300 100 1973790
-1.263 -0.184 0.300 100 1973790
-1.257 -0.176 0.300 100 1973790
-1.252 -0.169 0.300 100 1973790
-1.247 -0.161 0.300 100 1973790
-1.242 -0.153 0.300 100 1973790
-1.237 -0.145 0.300 100 1973790
-1.233 -0.136 0.300 100 1973790
-1.229 -0.128 0.300 100 1973790
-1.225 -0.119 0.300 100 1973790
-1.221 -0.110 0.300 100 1973790
-1.218 -0.102 0.300 100 1973790
-1.215 -0.093 0.300 100 1973790
-1.212 -0.084 0.300 100 1973790
-1.209 -0.075 0.300 100 1973790
-1.207 -0.065 0.300 100 1973790
-1.205 -0.056 0.300 100 1973790
-1.204 -0.047 0.300 100 1973790
-1.202 -0.038 0.300 100 1973790
-1.201 -0.028 0.300 100 1973790
-1.201 -0.019 0.300 100 1973790
-1.200 -0.009 0.300 100 1973790
-3.000 -3.000 3.000 200 8900331
-2.700 -3.000 3.200 200 8900331
-2.400 -3.000 3.400 200 8900331
-2.100 -3.000 3.600 200 8900331
-1.800 -3.000 3.800 200 8900331
-1.500 -3.000 4.000 200 8900331
-1.200 -3.000 4.200 200 8900331
-0.900 -3.000 4.400 200 8900331
-0.600 -3.000 4.600 200 8900331
-0.300 -3.000 4.800 200 8900331
0.000 -3.000 3.000 200 8900331
0.300 -3.000 3.200 200 8900331
0.600 -3.000 3.400 200 8900331
0.900 -3.000 3.600 200 8900331
1.200 -3.000 3.800 200 8900331
1.500 -3.000 4.000 200 8900331
1.800 -3.000 4.200 200 8900331
2.100 -3.000 4.400 200 8900331
2.400 -3.000 4.600 200 8900331
2.700 -3.000 4.800 200 8900331
-3.000 -2.700 3.000 200 8900331
-2.700 -2.700 3.200 200 8900331
-2.400 -2.700 3.400 200 8900331
-2.100 -2.700 3.600 200 8900331
-1.800 -2.700 3.800 200 8900331
-1.500 -2.700 4.000 200 8900331
-1.200 -2.700 4.200 200 8900331
-0.900 -2.700 4.400 200 8900331
-0.600 -2.700 4.600 200 8900331
-0.300 -2.700 4.800 200 8900331
0.000 -2.700 3.000 200 8900331
0.300 -2.700 3.200 200 8900331
0.600 -2.700 3.400 200 8900331
0.900 -2.700 3.600 200 8900331
1.200 -2.700 3.800 200 8900331
1.500 -2.700 4.000 200 8900331
1.800 -2.700 4.200 200 8900331
2.100 -2.700 4.400 200 8900331
2.400 -2.700 4.600 200 8900331
2.700 -2.700 4.800 200 8900331
-3.000 -2.400 3.000 200 8900331
-2.700 -2.400 3.200 200 8900331
-2.400 -2.400 3.400 200 8900331
-2.100 -2.400 3.600 200 8900331
-1.800 -2.400 3.800 200 8900331
-1.500 -2.400 4.000 200 8900331
-1.200 -2.400 4.200 200 8900331
-0.900 -2.400 4.400 200 8900331
-0.600 -2.400 4.600 200 8900331
-0.300 -2.400 4.800 200 8900331
0.000 -2.400 3.000 200 8900331
0.300 -2.400 3.200 200 8900331
0.600 -2.400 3.400 200 8900331
0.900 -2.400 3.600 200 8900331
1.200 -2.400 3.800 200 8900331
1.500 -2.400 4.000 200 8900331
1.800 -2.400 4.200 200 8900331
2.100 -2.400 4.400 200 8900331
2.400 -2.400 4.600 200 8900331
2.700 -2.400 4.800 200 8900331
-3.000 -2.100 3.000 200 8900331
-2.700 -2.100 3.200 200 8900331
-2.400 -2.100 3.400 200 8900331
-2.100 -2.100 3.600 200 8900331
-1.800 -2.100 3.800 200 8900331
-1.500 -2.100 4.000 200 8900331
-1.200 -2.100 4.200 200 8900331
-0.900 -2.100 4.400 200 8900331
-0.600 -2.100 4.600 200 8900331
-0.300 -2.100 4.800 200 8900331
0.000 -2.100 3.000 200 8900331
0.300 -2.100 3.200 200 8900331
0.600 -2.100 3.400 200 8900331
0.900 -2.100 3.600 200 8900331
1.200 -2.100 3.800 200 8900331
1.500 -2.100 4.000 200 8900331
1.800 -2.100 4.200 200 8900331
2.100 -2.100 4.400 200 8900331
2.400 -2.100 4.600 200 8900331
2.700 -2.100 4.800 200 8900331
-3.000 -1.800 3.000 200 8900331
-2.700 -1.800 3.200 200 8900331
-2.400 -1.800 3.400 200 8900331
-2.100 -1.800 3.600 200 8900331
-1.800 -1.800 3.800 200 8900331
-1.500 -1.800 4.000 200 8900331
-1.200 -1.800 4.200 200 8900331
-0.900 -1.800 4.400 200 8900331
-0.600 -1.800 4.600 200 8900331
-0.300 -1.800 4.800 200 8900331
0.000 -1.800 3.000 200 8900331
0.300 -1.800 3.200 200 8900331
0.600 -1.800 3.400 200 8900331
0.900 -1.800 3.600 200 8900331
1.200 -1.800 3.800 200 8900331
1.500 -1.800 4.000 200 8900331
1.800 -1.800 4.200 200 8900331
2.100 -1.800 4.400 200 8900331
2.400 -1.800 4.600 200 8900331
2.700 -1.800 4.800 200 8900331
-3.000 -1.500 3.000 200 8900331
-2.700 -1.500 3.200 200 8900331
-2.400 -1.500 3.400 200 8900331
-2.100 -1.500 3.600 200 8900331
-1.800 -1.500 3.800 200 8900331
-1.500 -1.500 4.000 200 8900331
-1.200 -1.500 4.200 200 8900331
-0.900 -1.500 4.400 200 8900331
-0.600 -1.500 4.600 200 8900331
-0.300 -1.500 4.800 200 8900331
0.000 -1.500 3.000 200 8900331
0.300 -1.500 3.200 200 8900331
0.600 -1.500 3.400 200 8900331
0.900 -1.500 3.600 200 8900331
1.200 -1.500 3.800 200 8900331
1.500 -1.500 4.000 200 8900331
1.800 -1.500 4.200 200 8900331
2.100 -1.500 4.400 200 8900331
2.400 -1.500 4.600 200 8900331
2.700 -1.500 4.800 200 8900331
-3.000 -1.200 3.000 200 8900331
-2.700 -1.200 3.200 200 8900331
-2.400 -1.200 3.400 200 8900331
-2.100 -1.200 3.600 200 8900331
-1.800 -1.200 3.800 200 8900331
-1.500 -1.200 4.000 200 8900331
-1.200 -1.200 4.200 200 8900331
-0.900 -1.200 4.400 200 8900331
-0.600 -1.200 4.600 200 8900331
-0.300 -1.200 4.800 200 8900331
0.000 -1.200 3.000 200 8900331
0.300 -1.200 3.200 200 8900331
0.600 -1.200 3.400 200 8900331
0.900 -1.200 3.600 200 8900331
1.200 -1.200 3.800 200 8900331
1.500 -1.200 4.000 200 8900331
1.800 -1.200 4.200 200 8900331
2.100 -1.200 4.400 200 8900331
2.400 -1.200 4.600 200 8900331
2.700 -1.200 4.800 200 8900331
-3.000 -0.900 3.000 200 8900331
-2.700 -0.900 3.200 200 8900331
-2.400 -0.900 3.400 200 8900331
-2.100 -0.900 3.600 200 8900331
-1.800 -0.900 3.800 200 8900331
-1.500 -0.900 4.000 200 8900331
-1.200 -0.900 4.200 200 8900331
-0.900 -0.900 4.400 200 8900331
-0.600 -0.900 4.600 200 8900331
-0.300 -0.900 4.800 200 8900331
0.000 -0.900 3.000 200 8900331
0.300 -0.900 3.200 200 8900331
0.600 -0.900 3.400 200 8900331
0.900 -0.900 3.600 200 8900331
1.200 -0.900 3.800 200 8900331
1.500 -0.900 4.000 200 8900331
1.800 -0.900 4.200 200 8900331
2.100 -0.900 4.400 200 8900331
2.400 -0.900 4.600 200 8900331
2.700 -0.900 4.800 200 8900331
-3.000 -0.600 3.000 200 8900331
-2.700 -0.600 3.200 200 8900331
-2.400 -0.600 3.400 200 8900331
-2.100 -0.600 3.600 200 8900331
-1.800 -0.600 3.800 200 8900331
-1.500 -0.600 4.000 200 8900331
-1.200 -0.600 4.200 200 8900331
-0.900 -0.600 4.400 200 8900331
-0.600 -0.600 4.600 200 8900331
-0.300 -0.600 4.800 200 8900331
0.000 -0.600 3.000 200 8900331
0.300 -0.600 3.200 200 8900331
0.600 -0.600 3.400 200 8900331
0.900 -0.600 3.600 200 8900331
1.200 -0.600 3.800 200 8900331
1.500 -0.600 4.000 200 8900331
1.800 -0.600 4.200 200 8900331
2.100 -0.600 4.400 200 8900331
2.400 -0.600 4.600 200 8900331
2.700 -0.600 4.800 200 8900331
-3.000 -0.300 3.000 200 8900331
-2.700 -0.300 3.200 200 8900331
-2.400 -0.300 3.400 200 8900331
-2.100 -0.300 3.600 200 8900331
-1.800 -0.300 3.800 200 8900331
-1.500 -0.300 4.000 200 8900331
-1.200 -0.300 4.200 200 8900331
-0.900 -0.300 4.400 200 8900331
-0.600 -0.300 4.600 200 8900331
-0.300 -0.300 4.800 200 8900331
0.000 -0.300 3.000 200 8900331
0.300 -0.300 3.200 200 8900331
0.600 -0.300 3.400 200 8900331
0.900 -0.300 3.600 200 8900331
1.200 -0.300 3.800 200 8900331
1.500 -0.300 4.000 200 8900331
1.800 -0.300 4.200 200 8900331
2.100 -0.300 4.400 200 8900331
2.400 -0.300 4.600 200 8900331
2.700 -0.300 4.800 200 8900331
